<svg id="visual" viewBox="0 0 900 600" width="900" height="600" xmlns="http://www.w3.org/2000/svg" xmlns:xlink="http://www.w3.org/1999/xlink" version="1.1"><rect x="0" y="0" width="900" height="600" fill="#07385d"></rect><defs><linearGradient id="grad1_0" x1="33.3%" y1="0%" x2="100%" y2="100%"><stop offset="20%" stop-color="#fbae3c" stop-opacity="1"></stop><stop offset="80%" stop-color="#fbae3c" stop-opacity="1"></stop></linearGradient></defs><defs><linearGradient id="grad1_1" x1="33.3%" y1="0%" x2="100%" y2="100%"><stop offset="20%" stop-color="#fbae3c" stop-opacity="1"></stop><stop offset="80%" stop-color="#fc8356" stop-opacity="1"></stop></linearGradient></defs><defs><linearGradient id="grad1_2" x1="33.3%" y1="0%" x2="100%" y2="100%"><stop offset="20%" stop-color="#e56370" stop-opacity="1"></stop><stop offset="80%" stop-color="#fc8356" stop-opacity="1"></stop></linearGradient></defs><defs><linearGradient id="grad1_3" x1="33.3%" y1="0%" x2="100%" y2="100%"><stop offset="20%" stop-color="#e56370" stop-opacity="1"></stop><stop offset="80%" stop-color="#ba5283" stop-opacity="1"></stop></linearGradient></defs><defs><linearGradient id="grad1_4" x1="33.3%" y1="0%" x2="100%" y2="100%"><stop offset="20%" stop-color="#824c87" stop-opacity="1"></stop><stop offset="80%" stop-color="#ba5283" stop-opacity="1"></stop></linearGradient></defs><defs><linearGradient id="grad1_5" x1="33.3%" y1="0%" x2="100%" y2="100%"><stop offset="20%" stop-color="#824c87" stop-opacity="1"></stop><stop offset="80%" stop-color="#474479" stop-opacity="1"></stop></linearGradient></defs><defs><linearGradient id="grad1_6" x1="33.3%" y1="0%" x2="100%" y2="100%"><stop offset="20%" stop-color="#07385d" stop-opacity="1"></stop><stop offset="80%" stop-color="#474479" stop-opacity="1"></stop></linearGradient></defs><defs><linearGradient id="grad2_0" x1="0%" y1="0%" x2="66.7%" y2="100%"><stop offset="20%" stop-color="#fbae3c" stop-opacity="1"></stop><stop offset="80%" stop-color="#fbae3c" stop-opacity="1"></stop></linearGradient></defs><defs><linearGradient id="grad2_1" x1="0%" y1="0%" x2="66.7%" y2="100%"><stop offset="20%" stop-color="#fc8356" stop-opacity="1"></stop><stop offset="80%" stop-color="#fbae3c" stop-opacity="1"></stop></linearGradient></defs><defs><linearGradient id="grad2_2" x1="0%" y1="0%" x2="66.7%" y2="100%"><stop offset="20%" stop-color="#fc8356" stop-opacity="1"></stop><stop offset="80%" stop-color="#e56370" stop-opacity="1"></stop></linearGradient></defs><defs><linearGradient id="grad2_3" x1="0%" y1="0%" x2="66.7%" y2="100%"><stop offset="20%" stop-color="#ba5283" stop-opacity="1"></stop><stop offset="80%" stop-color="#e56370" stop-opacity="1"></stop></linearGradient></defs><defs><linearGradient id="grad2_4" x1="0%" y1="0%" x2="66.7%" y2="100%"><stop offset="20%" stop-color="#ba5283" stop-opacity="1"></stop><stop offset="80%" stop-color="#824c87" stop-opacity="1"></stop></linearGradient></defs><defs><linearGradient id="grad2_5" x1="0%" y1="0%" x2="66.7%" y2="100%"><stop offset="20%" stop-color="#474479" stop-opacity="1"></stop><stop offset="80%" stop-color="#824c87" stop-opacity="1"></stop></linearGradient></defs><defs><linearGradient id="grad2_6" x1="0%" y1="0%" x2="66.7%" y2="100%"><stop offset="20%" stop-color="#474479" stop-opacity="1"></stop><stop offset="80%" stop-color="#07385d" stop-opacity="1"></stop></linearGradient></defs><g transform="translate(900, 0)"><path d="M0 486.7C-24.9 418.1 -49.8 349.5 -91.1 340C-132.5 330.5 -190.3 380.3 -212.5 368.1C-234.7 355.9 -221.4 281.7 -257.4 257.4C-293.4 233 -378.7 258.4 -421.5 243.4C-464.4 228.3 -464.7 172.8 -468.5 125.5C-472.3 78.2 -479.5 39.1 -486.7 0L0 0Z" fill="#293f6c"></path><path d="M0 417.2C-21.3 358.4 -42.6 299.5 -78.1 291.4C-113.5 283.3 -163.1 325.9 -182.1 315.5C-201.2 305 -189.8 241.5 -220.6 220.6C-251.5 199.7 -324.6 221.5 -361.3 208.6C-398 195.7 -398.3 148.1 -401.5 107.6C-404.8 67 -411 33.5 -417.2 0L0 0Z" fill="#654882"></path><path d="M0 347.7C-17.8 298.6 -35.5 249.6 -65.1 242.9C-94.6 236.1 -135.9 271.6 -151.8 262.9C-167.7 254.2 -158.1 201.2 -183.8 183.8C-209.6 166.4 -270.5 184.6 -301.1 173.8C-331.7 163.1 -331.9 123.5 -334.6 89.7C-337.3 55.9 -342.5 27.9 -347.7 0L0 0Z" fill="#9f4e87"></path><path d="M0 278.1C-14.2 238.9 -28.4 199.7 -52.1 194.3C-75.7 188.9 -108.7 217.3 -121.4 210.3C-134.1 203.3 -126.5 161 -147.1 147.1C-167.6 133.2 -216.4 147.7 -240.9 139.1C-265.4 130.5 -265.5 98.8 -267.7 71.7C-269.9 44.7 -274 22.3 -278.1 0L0 0Z" fill="#d1597b"></path><path d="M0 208.6C-10.7 179.2 -21.3 149.8 -39 145.7C-56.8 141.7 -81.5 163 -91.1 157.7C-100.6 152.5 -94.9 120.7 -110.3 110.3C-125.7 99.9 -162.3 110.8 -180.7 104.3C-199 97.9 -199.2 74.1 -200.8 53.8C-202.4 33.5 -205.5 16.8 -208.6 0L0 0Z" fill="#f37163"></path><path d="M0 139.1C-7.1 119.5 -14.2 99.8 -26 97.1C-37.8 94.4 -54.4 108.6 -60.7 105.2C-67.1 101.7 -63.3 80.5 -73.5 73.5C-83.8 66.6 -108.2 73.8 -120.4 69.5C-132.7 65.2 -132.8 49.4 -133.8 35.9C-134.9 22.3 -137 11.2 -139.1 0L0 0Z" fill="#fe9848"></path><path d="M0 69.5C-3.6 59.7 -7.1 49.9 -13 48.6C-18.9 47.2 -27.2 54.3 -30.4 52.6C-33.5 50.8 -31.6 40.2 -36.8 36.8C-41.9 33.3 -54.1 36.9 -60.2 34.8C-66.3 32.6 -66.4 24.7 -66.9 17.9C-67.5 11.2 -68.5 5.6 -69.5 0L0 0Z" fill="#fbae3c"></path></g><g transform="translate(0, 600)"><path d="M0 -486.7C41.7 -474.1 83.4 -461.5 117.2 -437.6C151 -413.6 176.9 -378.2 204.5 -354.2C232.1 -330.2 261.4 -317.5 304.1 -304.1C346.8 -290.7 402.9 -276.6 421.5 -243.4C440.2 -210.2 421.4 -157.9 426 -114.1C430.6 -70.4 458.7 -35.2 486.7 0L0 0Z" fill="#293f6c"></path><path d="M0 -417.2C35.8 -406.4 71.5 -395.6 100.5 -375.1C129.5 -354.5 151.6 -324.2 175.3 -303.6C198.9 -283 224 -272.1 260.6 -260.6C297.2 -249.1 345.3 -237.1 361.3 -208.6C377.3 -180.2 361.2 -135.3 365.1 -97.8C369.1 -60.3 393.1 -30.2 417.2 0L0 0Z" fill="#654882"></path><path d="M0 -347.7C29.8 -338.7 59.6 -329.7 83.7 -312.5C107.9 -295.4 126.4 -270.2 146.1 -253C165.8 -235.8 186.7 -226.8 217.2 -217.2C247.7 -207.6 287.8 -197.5 301.1 -173.8C314.4 -150.1 301 -112.8 304.3 -81.5C307.6 -50.3 327.6 -25.1 347.7 0L0 0Z" fill="#9f4e87"></path><path d="M0 -278.1C23.8 -270.9 47.7 -263.7 67 -250C86.3 -236.3 101.1 -216.1 116.9 -202.4C132.6 -188.7 149.3 -181.4 173.7 -173.7C198.1 -166.1 230.2 -158 240.9 -139.1C251.5 -120.1 240.8 -90.2 243.4 -65.2C246.1 -40.2 262.1 -20.1 278.1 0L0 0Z" fill="#d1597b"></path><path d="M0 -208.6C17.9 -203.2 35.8 -197.8 50.2 -187.5C64.7 -177.3 75.8 -162.1 87.6 -151.8C99.5 -141.5 112 -136.1 130.3 -130.3C148.6 -124.6 172.7 -118.5 180.7 -104.3C188.7 -90.1 180.6 -67.7 182.6 -48.9C184.5 -30.2 196.6 -15.1 208.6 0L0 0Z" fill="#f37163"></path><path d="M0 -139.1C11.9 -135.5 23.8 -131.9 33.5 -125C43.2 -118.2 50.5 -108.1 58.4 -101.2C66.3 -94.3 74.7 -90.7 86.9 -86.9C99.1 -83 115.1 -79 120.4 -69.5C125.8 -60.1 120.4 -45.1 121.7 -32.6C123 -20.1 131 -10.1 139.1 0L0 0Z" fill="#fe9848"></path><path d="M0 -69.5C6 -67.7 11.9 -65.9 16.7 -62.5C21.6 -59.1 25.3 -54 29.2 -50.6C33.2 -47.2 37.3 -45.4 43.4 -43.4C49.5 -41.5 57.6 -39.5 60.2 -34.8C62.9 -30 60.2 -22.6 60.9 -16.3C61.5 -10.1 65.5 -5 69.5 0L0 0Z" fill="#fbae3c"></path></g></svg>